<svg width="44" height="44" viewBox="0 0 44 44" fill="none" xmlns="http://www.w3.org/2000/svg">
<mask id="mask0_345_2009" style="mask-type:alpha" maskUnits="userSpaceOnUse" x="0" y="0" width="44" height="44">
<rect x="0.400009" y="0.799805" width="43.2" height="43.2" fill="#D9D9D9"/>
</mask>
<g mask="url(#mask0_345_2009)">
<path d="M20.11 24.8294L29.02 15.9194L26.455 13.3544L20.11 19.6994L17.59 17.1794L15.025 19.7444L20.11 24.8294ZM22 35.6294C25.66 32.2694 28.375 29.2169 30.145 26.4719C31.915 23.7269 32.8 21.2894 32.8 19.1594C32.8 15.8894 31.7575 13.2119 29.6725 11.1269C27.5875 9.04191 25.03 7.99941 22 7.99941C18.97 7.99941 16.4125 9.04191 14.3275 11.1269C12.2425 13.2119 11.2 15.8894 11.2 19.1594C11.2 21.2894 12.085 23.7269 13.855 26.4719C15.625 29.2169 18.34 32.2694 22 35.6294ZM22 40.3994C17.17 36.2894 13.5625 32.4719 11.1775 28.9469C8.79246 25.4219 7.59996 22.1594 7.59996 19.1594C7.59996 14.6594 9.04746 11.0744 11.9425 8.40441C14.8375 5.73441 18.19 4.39941 22 4.39941C25.81 4.39941 29.1625 5.73441 32.0575 8.40441C34.9525 11.0744 36.4 14.6594 36.4 19.1594C36.4 22.1594 35.2075 25.4219 32.8225 28.9469C30.4375 32.4719 26.83 36.2894 22 40.3994Z" fill="#0B1215"/>
</g>
</svg>
